<svg width="108" height="45" viewBox="0 0 108 45" fill="none" xmlns="http://www.w3.org/2000/svg">
<mask id="path-1-outside-1_13014_1539" maskUnits="userSpaceOnUse" x="37.3162" y="1.22999" width="71.4572" height="36.2156" fill="black">
<rect fill="white" x="37.3162" y="1.22999" width="71.4572" height="36.2156"/>
<path d="M41.8643 35.9839C41.6645 35.9932 41.4573 35.8427 41.3681 35.6466C40.3516 32.7307 39.7727 29.7543 39.6315 26.7176C39.3287 20.2047 41.0525 13.3572 44.8467 6.25332C44.9191 6.08977 45.0753 6.00243 45.2351 5.995C45.5148 5.98199 45.7239 6.17249 45.7369 6.45219C45.7406 6.5321 45.7043 6.61387 45.6681 6.69564C41.9882 13.6741 40.2951 20.3199 40.5905 26.673C40.7279 29.6298 41.3031 32.5263 42.2741 35.3242C42.3159 35.3623 42.3196 35.4422 42.3215 35.4821C42.3345 35.7618 42.144 35.9709 41.8643 35.9839ZM46.7853 33.1924C46.5056 33.2054 46.2965 33.0149 46.2835 32.7352L46.2798 32.6552C46.8913 26.8606 48.1776 9.74237 48.4063 6.04777C48.4351 5.80617 48.5076 5.64263 48.66 5.47537C48.8142 5.34806 48.9703 5.26072 49.1701 5.25143C51.9689 5.16134 54.5448 5.44201 54.7194 9.19795C54.8513 12.0349 52.9779 14.8049 51.0711 16.8557C52.9258 18.8517 54.184 21.7964 54.3066 24.4336C54.4738 28.0297 52.6078 30.9595 49.0061 32.7287C48.9281 32.7724 48.8881 32.7742 48.8082 32.7779C48.5285 32.791 48.3194 32.6005 48.3064 32.3208C48.2971 32.121 48.4096 31.9556 48.5657 31.8682C51.8533 30.2338 53.4981 27.7147 53.3476 24.4782C53.2361 22.0807 52.109 19.3702 50.4234 17.5665C49.8482 18.1138 49.3093 18.5794 48.8484 19.0012C48.5761 19.174 48.4599 19.2595 48.42 19.2614L48.4181 19.2214C47.9841 24.5273 47.5556 29.9531 47.2462 32.7705C47.2173 33.0121 47.025 33.1812 46.7853 33.1924ZM48.5222 18.0153C50.6781 16.1532 53.9202 12.6788 53.7604 9.24254C53.6267 6.36565 51.9736 6.12216 49.3745 6.20296C49.2602 8.05027 48.9237 12.8711 48.5222 18.0153ZM65.4728 32.4036C65.2331 32.4147 65.024 32.2242 64.9729 31.9863C64.8085 31.0329 64.5734 28.5612 64.3523 25.5282C63.0793 25.7075 60.3297 25.9955 59.2127 26.0875C58.5232 28.4821 57.8625 30.6351 57.3718 32.1395C57.3412 32.3412 57.147 32.4703 56.9472 32.4796C56.6675 32.4926 56.4584 32.3021 56.4454 32.0224C56.4417 31.9425 56.4398 31.9026 56.4779 31.8607C58.2231 26.3337 62.2571 12.3312 63.0479 9.53149L63.1548 9.24622L63.1966 9.28432L63.0907 7.00678C63.0777 6.72708 63.2682 6.51801 63.5479 6.505C63.8276 6.492 64.0367 6.68249 64.0497 6.96219C64.1221 10.2424 65.4237 28.7619 65.9263 31.8219L65.93 31.9018C65.943 32.1815 65.7525 32.3905 65.4728 32.4036ZM59.5259 25.0718C60.8027 24.9724 63.1945 24.7411 64.2678 24.5711C63.9184 20.5029 63.5719 15.6337 63.361 11.9596C62.4652 15.0845 60.9105 20.4025 59.5259 25.0718ZM70.6456 31.6425C70.4858 31.6499 70.3222 31.5774 70.2367 31.4613C69.957 31.4743 69.748 31.2838 69.7349 31.0041L69.7312 30.9242C70.3771 25.0078 71.2917 11.9512 71.5743 7.6935C71.6031 7.4519 71.7137 7.24654 71.9915 7.19358C72.3874 7.09509 72.7851 7.03656 73.1447 7.01984C76.541 6.86192 78.9421 10.2741 79.1799 15.3886C79.4883 22.0214 76.2238 28.46 70.8835 31.5914C70.8036 31.5951 70.7255 31.6388 70.6456 31.6425ZM70.7534 30.5163C75.5798 27.5289 78.507 21.5865 78.2209 15.4332C78.0054 10.7982 75.9862 7.84875 73.1893 7.9788C72.9895 7.98809 72.7497 7.99924 72.5119 8.05034C72.1949 12.4298 71.3556 24.5218 70.7534 30.5163ZM84.4768 31.1996C83.7176 31.2349 82.9966 31.2284 82.3517 31.1382C82.1101 31.1094 81.9465 31.037 81.8174 30.8427C81.6483 30.6504 81.6009 30.4924 81.6297 30.2508C81.9364 26.5125 83.2868 13.3556 84.2133 6.58528C84.2421 6.34368 84.4345 6.17457 84.6742 6.16342C84.9539 6.15042 85.163 6.34091 85.176 6.62061L85.1797 6.70052C84.2494 13.391 82.9279 26.3063 82.5886 30.2062C83.1917 30.2583 83.7929 30.2704 84.4322 30.2406C85.3912 30.1961 86.3464 30.0716 87.2162 29.8309L87.3361 29.8253C87.6158 29.8123 87.8248 30.0028 87.8378 30.2825C87.849 30.5223 87.6985 30.7295 87.4606 30.7806C86.5509 31.0231 85.5157 31.1513 84.4768 31.1996ZM94.0695 31.8348C93.7898 31.8478 93.5807 31.6573 93.5677 31.3776L93.5658 31.3376C93.7118 28.4477 94.1235 24.3842 94.6235 21.3577L94.5454 21.4014C94.0595 18.7011 93.7027 16.1949 93.3478 13.7287C93.004 11.5023 92.6621 9.31583 92.2802 7.1312L92.2765 7.05129C92.2635 6.77159 92.454 6.56252 92.7337 6.54952C92.9734 6.53837 93.1825 6.72886 93.2336 6.96675C93.6155 9.15137 93.9574 11.3378 94.2631 13.6061C94.5446 15.3549 94.788 17.1455 95.1151 19.0124C95.931 15.8911 98.0999 10.8649 100.429 5.83135C100.501 5.6678 100.655 5.5405 100.855 5.53121C101.135 5.51821 101.344 5.7087 101.357 5.9884C101.361 6.06832 101.324 6.15009 101.328 6.23C98.2327 12.8609 96.4049 17.4708 95.8807 19.9778C95.2572 22.93 94.6903 27.9617 94.5285 31.3729C94.4997 31.6145 94.3092 31.8236 94.0695 31.8348ZM102.788 33.1512C102.508 33.1642 102.299 32.9738 102.286 32.6941C102.283 32.6141 102.281 32.5742 102.317 32.4924C104.92 25.6041 106.057 19.0642 105.762 12.7111C105.61 9.4346 105.1 6.21482 104.152 3.05543L104.146 2.93555C104.133 2.65586 104.324 2.44678 104.603 2.43378C104.843 2.42263 105.05 2.57317 105.1 2.7711C106.053 6.05036 106.565 9.3101 106.721 12.6665C107.022 19.1395 105.85 25.8011 103.215 32.8511C103.142 33.0147 102.988 33.142 102.788 33.1512Z"/>
</mask>
<path d="M41.8643 35.9839C41.6645 35.9932 41.4573 35.8427 41.3681 35.6466C40.3516 32.7307 39.7727 29.7543 39.6315 26.7176C39.3287 20.2047 41.0525 13.3572 44.8467 6.25332C44.9191 6.08977 45.0753 6.00243 45.2351 5.995C45.5148 5.98199 45.7239 6.17249 45.7369 6.45219C45.7406 6.5321 45.7043 6.61387 45.6681 6.69564C41.9882 13.6741 40.2951 20.3199 40.5905 26.673C40.7279 29.6298 41.3031 32.5263 42.2741 35.3242C42.3159 35.3623 42.3196 35.4422 42.3215 35.4821C42.3345 35.7618 42.144 35.9709 41.8643 35.9839ZM46.7853 33.1924C46.5056 33.2054 46.2965 33.0149 46.2835 32.7352L46.2798 32.6552C46.8913 26.8606 48.1776 9.74237 48.4063 6.04777C48.4351 5.80617 48.5076 5.64263 48.66 5.47537C48.8142 5.34806 48.9703 5.26072 49.1701 5.25143C51.9689 5.16134 54.5448 5.44201 54.7194 9.19795C54.8513 12.0349 52.9779 14.8049 51.0711 16.8557C52.9258 18.8517 54.184 21.7964 54.3066 24.4336C54.4738 28.0297 52.6078 30.9595 49.0061 32.7287C48.9281 32.7724 48.8881 32.7742 48.8082 32.7779C48.5285 32.791 48.3194 32.6005 48.3064 32.3208C48.2971 32.121 48.4096 31.9556 48.5657 31.8682C51.8533 30.2338 53.4981 27.7147 53.3476 24.4782C53.2361 22.0807 52.109 19.3702 50.4234 17.5665C49.8482 18.1138 49.3093 18.5794 48.8484 19.0012C48.5761 19.174 48.4599 19.2595 48.42 19.2614L48.4181 19.2214C47.9841 24.5273 47.5556 29.9531 47.2462 32.7705C47.2173 33.0121 47.025 33.1812 46.7853 33.1924ZM48.5222 18.0153C50.6781 16.1532 53.9202 12.6788 53.7604 9.24254C53.6267 6.36565 51.9736 6.12216 49.3745 6.20296C49.2602 8.05027 48.9237 12.8711 48.5222 18.0153ZM65.4728 32.4036C65.2331 32.4147 65.024 32.2242 64.9729 31.9863C64.8085 31.0329 64.5734 28.5612 64.3523 25.5282C63.0793 25.7075 60.3297 25.9955 59.2127 26.0875C58.5232 28.4821 57.8625 30.6351 57.3718 32.1395C57.3412 32.3412 57.147 32.4703 56.9472 32.4796C56.6675 32.4926 56.4584 32.3021 56.4454 32.0224C56.4417 31.9425 56.4398 31.9026 56.4779 31.8607C58.2231 26.3337 62.2571 12.3312 63.0479 9.53149L63.1548 9.24622L63.1966 9.28432L63.0907 7.00678C63.0777 6.72708 63.2682 6.51801 63.5479 6.505C63.8276 6.492 64.0367 6.68249 64.0497 6.96219C64.1221 10.2424 65.4237 28.7619 65.9263 31.8219L65.93 31.9018C65.943 32.1815 65.7525 32.3905 65.4728 32.4036ZM59.5259 25.0718C60.8027 24.9724 63.1945 24.7411 64.2678 24.5711C63.9184 20.5029 63.5719 15.6337 63.361 11.9596C62.4652 15.0845 60.9105 20.4025 59.5259 25.0718ZM70.6456 31.6425C70.4858 31.6499 70.3222 31.5774 70.2367 31.4613C69.957 31.4743 69.748 31.2838 69.7349 31.0041L69.7312 30.9242C70.3771 25.0078 71.2917 11.9512 71.5743 7.6935C71.6031 7.4519 71.7137 7.24654 71.9915 7.19358C72.3874 7.09509 72.7851 7.03656 73.1447 7.01984C76.541 6.86192 78.9421 10.2741 79.1799 15.3886C79.4883 22.0214 76.2238 28.46 70.8835 31.5914C70.8036 31.5951 70.7255 31.6388 70.6456 31.6425ZM70.7534 30.5163C75.5798 27.5289 78.507 21.5865 78.2209 15.4332C78.0054 10.7982 75.9862 7.84875 73.1893 7.9788C72.9895 7.98809 72.7497 7.99924 72.5119 8.05034C72.1949 12.4298 71.3556 24.5218 70.7534 30.5163ZM84.4768 31.1996C83.7176 31.2349 82.9966 31.2284 82.3517 31.1382C82.1101 31.1094 81.9465 31.037 81.8174 30.8427C81.6483 30.6504 81.6009 30.4924 81.6297 30.2508C81.9364 26.5125 83.2868 13.3556 84.2133 6.58528C84.2421 6.34368 84.4345 6.17457 84.6742 6.16342C84.9539 6.15042 85.163 6.34091 85.176 6.62061L85.1797 6.70052C84.2494 13.391 82.9279 26.3063 82.5886 30.2062C83.1917 30.2583 83.7929 30.2704 84.4322 30.2406C85.3912 30.1961 86.3464 30.0716 87.2162 29.8309L87.3361 29.8253C87.6158 29.8123 87.8248 30.0028 87.8378 30.2825C87.849 30.5223 87.6985 30.7295 87.4606 30.7806C86.5509 31.0231 85.5157 31.1513 84.4768 31.1996ZM94.0695 31.8348C93.7898 31.8478 93.5807 31.6573 93.5677 31.3776L93.5658 31.3376C93.7118 28.4477 94.1235 24.3842 94.6235 21.3577L94.5454 21.4014C94.0595 18.7011 93.7027 16.1949 93.3478 13.7287C93.004 11.5023 92.6621 9.31583 92.2802 7.1312L92.2765 7.05129C92.2635 6.77159 92.454 6.56252 92.7337 6.54952C92.9734 6.53837 93.1825 6.72886 93.2336 6.96675C93.6155 9.15137 93.9574 11.3378 94.2631 13.6061C94.5446 15.3549 94.788 17.1455 95.1151 19.0124C95.931 15.8911 98.0999 10.8649 100.429 5.83135C100.501 5.6678 100.655 5.5405 100.855 5.53121C101.135 5.51821 101.344 5.7087 101.357 5.9884C101.361 6.06832 101.324 6.15009 101.328 6.23C98.2327 12.8609 96.4049 17.4708 95.8807 19.9778C95.2572 22.93 94.6903 27.9617 94.5285 31.3729C94.4997 31.6145 94.3092 31.8236 94.0695 31.8348ZM102.788 33.1512C102.508 33.1642 102.299 32.9738 102.286 32.6941C102.283 32.6141 102.281 32.5742 102.317 32.4924C104.92 25.6041 106.057 19.0642 105.762 12.7111C105.61 9.4346 105.1 6.21482 104.152 3.05543L104.146 2.93555C104.133 2.65586 104.324 2.44678 104.603 2.43378C104.843 2.42263 105.05 2.57317 105.1 2.7711C106.053 6.05036 106.565 9.3101 106.721 12.6665C107.022 19.1395 105.85 25.8011 103.215 32.8511C103.142 33.0147 102.988 33.142 102.788 33.1512Z" fill="#FFCC00"/>
<path d="M41.3681 35.6466L40.6127 35.9099L40.6247 35.9445L40.6399 35.9779L41.3681 35.6466ZM44.8467 6.25332L45.5523 6.6302L45.5662 6.60431L45.578 6.57747L44.8467 6.25332ZM45.6681 6.69564L46.3757 7.06879L46.3884 7.0447L46.3995 7.01979L45.6681 6.69564ZM42.2741 35.3242L41.5183 35.5865L41.585 35.7786L41.7353 35.9155L42.2741 35.3242ZM41.8643 35.9839L41.8271 35.1848C41.9388 35.1796 42.007 35.2185 42.0306 35.2349C42.0559 35.2524 42.0785 35.2764 42.0963 35.3153L41.3681 35.6466L40.6399 35.9779C40.8325 36.4012 41.3038 36.8108 41.9014 36.7831L41.8643 35.9839ZM41.3681 35.6466L42.1235 35.3833C41.132 32.539 40.5682 29.6389 40.4306 26.6805L39.6315 26.7176L38.8324 26.7548C38.9772 29.8698 39.5711 32.9223 40.6127 35.9099L41.3681 35.6466ZM39.6315 26.7176L40.4306 26.6805C40.1358 20.3395 41.8114 13.6344 45.5523 6.6302L44.8467 6.25332L44.141 5.87643C40.2936 13.08 38.5215 20.0698 38.8324 26.7548L39.6315 26.7176ZM44.8467 6.25332L45.578 6.57747C45.5107 6.72932 45.3708 6.78955 45.2722 6.79413L45.2351 5.995L45.1979 5.19586C44.7797 5.2153 44.3275 5.45023 44.1153 5.92916L44.8467 6.25332ZM45.2351 5.995L45.2722 6.79413C45.2166 6.79672 45.1269 6.77785 45.0472 6.70517C44.9674 6.6325 44.9403 6.54496 44.9377 6.48934L45.7369 6.45219L46.536 6.41503C46.5025 5.69398 45.919 5.16233 45.1979 5.19586L45.2351 5.995ZM45.7369 6.45219L44.9377 6.48934C44.9335 6.39839 44.953 6.33726 44.9562 6.32741C44.9583 6.32082 44.9589 6.32016 44.9553 6.3288C44.9514 6.33828 44.9465 6.34942 44.9367 6.3715L45.6681 6.69564L46.3995 7.01979C46.4147 6.9855 46.5502 6.72029 46.536 6.41503L45.7369 6.45219ZM45.6681 6.69564L44.9604 6.32249C41.2302 13.3965 39.4879 20.1836 39.7913 26.7102L40.5905 26.673L41.3896 26.6359C41.1023 20.4562 42.7463 13.9516 46.3757 7.06879L45.6681 6.69564ZM40.5905 26.673L39.7913 26.7102C39.9325 29.7468 40.5232 32.719 41.5183 35.5865L42.2741 35.3242L43.0299 35.0619C42.083 32.3335 41.5234 29.5128 41.3896 26.6359L40.5905 26.673ZM42.2741 35.3242L41.7353 35.9155C41.6477 35.8357 41.5991 35.7519 41.5733 35.6963C41.5474 35.6406 41.5359 35.5949 41.5306 35.5705C41.5213 35.527 41.5212 35.4947 41.5223 35.5193L42.3215 35.4821L43.1206 35.445C43.1199 35.4296 43.117 35.3374 43.0949 35.2344C43.0767 35.1497 43.0192 34.9208 42.8129 34.7328L42.2741 35.3242ZM42.3215 35.4821L41.5223 35.5193C41.5198 35.4637 41.5386 35.374 41.6113 35.2942C41.684 35.2145 41.7715 35.1874 41.8271 35.1848L41.8643 35.9839L41.9014 36.7831C42.6225 36.7495 43.1541 36.166 43.1206 35.445L42.3215 35.4821ZM46.2798 32.6553L45.4842 32.5713L45.4778 32.6317L45.4806 32.6924L46.2798 32.6553ZM48.4063 6.04777L47.6119 5.95304L47.6092 5.97564L47.6078 5.99835L48.4063 6.04777ZM48.66 5.47537L48.1507 4.85835L48.1069 4.89454L48.0686 4.93657L48.66 5.47537ZM49.1701 5.25143L49.1444 4.45176L49.1329 4.45229L49.1701 5.25143ZM51.0711 16.8557L50.4852 16.3109L49.9789 16.8555L50.4851 17.4002L51.0711 16.8557ZM49.0061 32.7287L48.6534 32.0107L48.6342 32.0201L48.6155 32.0306L49.0061 32.7287ZM48.5657 31.8682L48.2095 31.1519L48.1921 31.1606L48.1751 31.1701L48.5657 31.8682ZM50.4234 17.5665L51.0079 17.0203L50.4568 16.4305L49.872 16.9869L50.4234 17.5665ZM48.8484 19.0012L49.2771 19.6766L49.3366 19.6389L49.3885 19.5913L48.8484 19.0012ZM48.42 19.2614L47.6209 19.2985L47.658 20.0977L48.4571 20.0605L48.42 19.2614ZM48.4181 19.2214L49.2173 19.1843L47.6208 19.1562L48.4181 19.2214ZM47.2462 32.7705L48.0406 32.8652L48.0414 32.8578L47.2462 32.7705ZM48.5222 18.0153L47.7247 17.953L47.5733 19.8921L49.0452 18.6207L48.5222 18.0153ZM49.3745 6.20296L49.3497 5.40335L48.6211 5.426L48.576 6.15355L49.3745 6.20296ZM46.7853 33.1923L46.7481 32.3932C46.8037 32.3906 46.8934 32.4095 46.9732 32.4822C47.0529 32.5548 47.08 32.6424 47.0826 32.698L46.2835 32.7352L45.4843 32.7723C45.5179 33.4934 46.1014 34.025 46.8224 33.9915L46.7853 33.1923ZM46.2835 32.7352L47.0826 32.698L47.0789 32.6181L46.2798 32.6553L45.4806 32.6924L45.4843 32.7723L46.2835 32.7352ZM46.2798 32.6553L47.0753 32.7392C47.6886 26.9279 48.9758 9.79661 49.2047 6.09718L48.4063 6.04777L47.6078 5.99835C47.3794 9.68814 46.0939 26.7933 45.4842 32.5713L46.2798 32.6553ZM48.4063 6.04777L49.2006 6.1425C49.2081 6.07988 49.2173 6.05983 49.2182 6.05784C49.2182 6.05779 49.2223 6.046 49.2513 6.01417L48.66 5.47537L48.0686 4.93657C47.7953 5.23653 47.6589 5.55904 47.6119 5.95304L48.4063 6.04777ZM48.66 5.47537L49.1692 6.09238C49.2154 6.05425 49.2352 6.04461 49.2366 6.04394C49.2366 6.04392 49.2355 6.04443 49.2334 6.0452C49.2313 6.04598 49.2284 6.04688 49.225 6.04774C49.2177 6.0496 49.2113 6.05038 49.2073 6.05057L49.1701 5.25143L49.1329 4.45229C48.691 4.47284 48.3727 4.6752 48.1507 4.85835L48.66 5.47537ZM49.1701 5.25143L49.1958 6.05102C50.6058 6.00563 51.751 6.07144 52.5596 6.49213C52.9393 6.68966 53.2461 6.96763 53.4742 7.37503C53.7076 7.79171 53.8807 8.38379 53.9203 9.23511L54.7194 9.19795L55.5185 9.1608C55.4708 8.13415 55.2564 7.28266 54.8702 6.59318C54.4788 5.8944 53.934 5.4036 53.2981 5.07273C52.0754 4.43663 50.5332 4.40714 49.1444 4.45185L49.1701 5.25143ZM54.7194 9.19795L53.9203 9.23511C54.0361 11.7262 52.3695 14.2844 50.4852 16.3109L51.0711 16.8557L51.657 17.4004C53.5864 15.3254 55.6665 12.3435 55.5185 9.1608L54.7194 9.19795ZM51.0711 16.8557L50.4851 17.4002C52.2157 19.2627 53.3939 22.0293 53.5074 24.4707L54.3066 24.4336L55.1057 24.3964C54.974 21.5635 53.636 18.4407 51.6572 16.3111L51.0711 16.8557ZM54.3066 24.4336L53.5074 24.4707C53.6579 27.7061 52.0096 30.3621 48.6534 32.0107L49.0061 32.7287L49.3588 33.4468C53.2061 31.5569 55.2897 28.3533 55.1057 24.3964L54.3066 24.4336ZM49.0061 32.7287L48.6155 32.0306C48.6189 32.0286 48.6336 32.0206 48.657 32.0113C48.6821 32.0013 48.7102 31.9925 48.7398 31.9862C48.7678 31.9801 48.7883 31.9782 48.794 31.9777C48.7961 31.9775 48.7949 31.9777 48.771 31.9788L48.8082 32.7779L48.8453 33.5771C48.8696 33.576 48.9692 33.5734 49.0759 33.5505C49.2022 33.5233 49.307 33.4771 49.3967 33.4269L49.0061 32.7287ZM48.8082 32.7779L48.771 31.9788C48.8267 31.9762 48.9163 31.9951 48.9961 32.0678C49.0759 32.1404 49.103 32.228 49.1055 32.2836L48.3064 32.3208L47.5073 32.3579C47.5408 33.079 48.1243 33.6106 48.8453 33.5771L48.8082 32.7779ZM48.3064 32.3208L49.1055 32.2836C49.1123 32.4284 49.0259 32.5274 48.9563 32.5664L48.5657 31.8682L48.1751 31.1701C47.7932 31.3837 47.482 31.8135 47.5073 32.3579L48.3064 32.3208ZM48.5657 31.8682L48.9218 32.5846C50.6636 31.7187 52.0193 30.5937 52.9171 29.2093C53.819 27.8187 54.2291 26.2118 54.1467 24.441L53.3476 24.4782L52.5485 24.5153C52.6166 25.981 52.2795 27.2519 51.5747 28.3386C50.8659 29.4315 49.7554 30.3833 48.2095 31.1519L48.5657 31.8682ZM53.3476 24.4782L54.1467 24.441C54.0265 21.8544 52.8236 18.9632 51.0079 17.0203L50.4234 17.5665L49.8389 18.1127C51.3944 19.7772 52.4458 22.3071 52.5485 24.5153L53.3476 24.4782ZM50.4234 17.5665L49.872 16.9869C49.301 17.5302 48.7942 17.9663 48.3082 18.4111L48.8484 19.0012L49.3885 19.5913C49.8243 19.1924 50.3955 18.6974 50.9749 18.1461L50.4234 17.5665ZM48.8484 19.0012L48.4196 18.3258C48.3481 18.3712 48.2871 18.4107 48.2364 18.4436C48.1837 18.4778 48.1477 18.5013 48.1183 18.52C48.1043 18.5289 48.0951 18.5346 48.0893 18.5381C48.0829 18.5419 48.0845 18.5407 48.0916 18.537C48.0968 18.5342 48.1202 18.522 48.1553 18.5086C48.1738 18.5016 48.2014 18.4921 48.2362 18.4835C48.2702 18.4751 48.3206 18.4651 48.3828 18.4623L48.42 19.2614L48.4571 20.0605C48.5828 20.0547 48.6791 20.0212 48.7221 20.0049C48.7723 19.9859 48.8134 19.9653 48.8394 19.9515C48.8904 19.9245 48.9401 19.8935 48.9758 19.8708C49.0144 19.8463 49.061 19.8159 49.108 19.7854C49.1569 19.7536 49.2125 19.7176 49.2771 19.6766L48.8484 19.0012ZM48.42 19.2614L49.2191 19.2242L49.2173 19.1843L48.4181 19.2214L47.619 19.2586L47.6209 19.2985L48.42 19.2614ZM48.4181 19.2214L47.6208 19.1562C47.186 24.4717 46.7588 29.8802 46.4509 32.6831L47.2462 32.7705L48.0414 32.8578C48.3524 30.0259 48.7822 24.5829 49.2155 19.2867L48.4181 19.2214ZM47.2462 32.7705L46.4518 32.6758C46.4602 32.605 46.4963 32.5305 46.5581 32.4746C46.6184 32.4201 46.6885 32.396 46.7481 32.3932L46.7853 33.1923L46.8224 33.9915C47.4332 33.9631 47.9631 33.5143 48.0405 32.8652L47.2462 32.7705ZM48.5222 18.0153L49.0452 18.6207C50.1528 17.664 51.5556 16.2802 52.6674 14.6747C53.7699 13.0824 54.6513 11.1781 54.5596 9.20539L53.7604 9.24254L52.9613 9.2797C53.0293 10.7432 52.3695 12.2943 51.352 13.7638C50.3436 15.22 49.0475 16.5045 47.9993 17.4099L48.5222 18.0153ZM53.7604 9.24254L54.5596 9.20539C54.4854 7.61104 53.9669 6.50489 52.8741 5.91077C51.901 5.38175 50.6201 5.36386 49.3497 5.40335L49.3745 6.20296L49.3994 7.00258C50.728 6.96127 51.5732 7.02471 52.1099 7.31647C52.5267 7.54311 52.9017 7.99714 52.9613 9.2797L53.7604 9.24254ZM49.3745 6.20296L48.576 6.15355C48.4621 7.99513 48.126 12.8114 47.7247 17.953L48.5222 18.0153L49.3198 18.0775C49.7215 12.9308 50.0583 8.10541 50.173 6.25238L49.3745 6.20296ZM64.9729 31.9863L64.1846 32.1223L64.1873 32.1384L64.1908 32.1543L64.9729 31.9863ZM64.3523 25.5282L65.1502 25.47L65.088 24.6166L64.2407 24.736L64.3523 25.5282ZM59.2127 26.0875L59.1471 25.2902L58.5968 25.3355L58.444 25.8661L59.2127 26.0875ZM57.3718 32.1395L56.6113 31.8915L56.5908 31.9541L56.5809 32.0192L57.3718 32.1395ZM56.4779 31.8607L57.0693 32.3995L57.1878 32.2694L57.2408 32.1016L56.4779 31.8607ZM63.0479 9.53149L62.2988 9.25085L62.2871 9.28201L62.2781 9.31403L63.0479 9.53149ZM63.1548 9.24622L63.6936 8.65487L62.8202 7.85905L62.4056 8.96558L63.1548 9.24622ZM63.1966 9.28432L62.6578 9.87567L64.0855 11.1764L63.9957 9.24716L63.1966 9.28432ZM64.0497 6.96219L64.8495 6.94453L64.8493 6.93478L64.8488 6.92504L64.0497 6.96219ZM65.9263 31.8219L66.7255 31.7847L66.7233 31.7382L66.7157 31.6922L65.9263 31.8219ZM59.5259 25.0718L58.7589 24.8444L58.4282 25.9597L59.588 25.8694L59.5259 25.0718ZM64.2678 24.5711L64.3929 25.3612L65.1285 25.2447L65.0648 24.5026L64.2678 24.5711ZM63.361 11.9596L64.1597 11.9137L62.592 11.7391L63.361 11.9596ZM65.4728 32.4036L65.4357 31.6044C65.5451 31.5993 65.6274 31.642 65.6728 31.6809C65.7159 31.7178 65.7435 31.7646 65.7551 31.8183L64.9729 31.9863L64.1908 32.1543C64.3082 32.7009 64.8089 33.2353 65.51 33.2027L65.4728 32.4036ZM64.9729 31.9863L65.7613 31.8503C65.6048 30.9429 65.372 28.5124 65.1502 25.47L64.3523 25.5282L63.5544 25.5863C63.7748 28.61 64.0122 31.1229 64.1846 32.1223L64.9729 31.9863ZM64.3523 25.5282L64.2407 24.736C62.9869 24.9126 60.2533 25.1991 59.1471 25.2902L59.2127 26.0875L59.2784 26.8848C60.4061 26.7919 63.1716 26.5024 64.4639 26.3204L64.3523 25.5282ZM59.2127 26.0875L58.444 25.8661C57.7564 28.2538 57.0985 30.3977 56.6113 31.8915L57.3718 32.1395L58.1324 32.3876C58.6265 30.8725 59.29 28.7104 59.9815 26.3089L59.2127 26.0875ZM57.3718 32.1395L56.5809 32.0192C56.6014 31.8848 56.6763 31.7922 56.7396 31.7442C56.7976 31.7002 56.8565 31.683 56.91 31.6805L56.9472 32.4796L56.9843 33.2787C57.4429 33.2574 58.0582 32.9475 58.1627 32.2598L57.3718 32.1395ZM56.9472 32.4796L56.91 31.6805C56.9656 31.6779 57.0553 31.6968 57.1351 31.7694C57.2148 31.8421 57.242 31.9296 57.2445 31.9853L56.4454 32.0224L55.6463 32.0596C55.6798 32.7806 56.2633 33.3123 56.9843 33.2787L56.9472 32.4796ZM56.4454 32.0224L57.2445 31.9853C57.2434 31.9608 57.2435 31.9605 57.2435 31.9641C57.2436 31.9692 57.2438 32.0019 57.2369 32.0476C57.2292 32.0979 57.2131 32.163 57.1799 32.2335C57.1467 32.304 57.1061 32.3591 57.0693 32.3995L56.4779 31.8607L55.8866 31.3219C55.5904 31.647 55.6456 32.0445 55.6463 32.0596L56.4454 32.0224ZM56.4779 31.8607L57.2408 32.1016C58.9901 26.5616 63.0271 12.5483 63.8178 9.74895L63.0479 9.53149L62.2781 9.31403C61.4871 12.1142 57.4561 26.1059 55.7151 31.6199L56.4779 31.8607ZM63.0479 9.53149L63.7971 9.81214L63.904 9.52686L63.1548 9.24622L62.4056 8.96558L62.2988 9.25085L63.0479 9.53149ZM63.1548 9.24622L62.616 9.83757L62.6578 9.87567L63.1966 9.28432L63.7354 8.69297L63.6936 8.65487L63.1548 9.24622ZM63.1966 9.28432L63.9957 9.24716L63.8899 6.96962L63.0907 7.00678L62.2916 7.04394L62.3975 9.32148L63.1966 9.28432ZM63.0907 7.00678L63.8899 6.96962C63.8924 7.02524 63.8736 7.11492 63.8009 7.19468C63.7282 7.27445 63.6407 7.30155 63.5851 7.30414L63.5479 6.505L63.5108 5.70587C62.7897 5.73939 62.2581 6.32289 62.2916 7.04394L63.0907 7.00678ZM63.5479 6.505L63.5851 7.30414C63.5294 7.30673 63.4398 7.28786 63.36 7.21518C63.2802 7.14251 63.2531 7.05497 63.2505 6.99935L64.0497 6.96219L64.8488 6.92504C64.8153 6.20399 64.2318 5.67234 63.5108 5.70587L63.5479 6.505ZM64.0497 6.96219L63.2499 6.97985C63.2866 8.64472 63.632 14.1172 64.0288 19.5331C64.4246 24.9353 64.8782 30.3767 65.1369 31.9515L65.9263 31.8219L66.7157 31.6922C66.4718 30.2071 66.0233 24.8587 65.6245 19.4162C65.2268 13.9872 64.8852 8.55985 64.8495 6.94453L64.0497 6.96219ZM65.9263 31.8219L65.1272 31.859L65.1309 31.9389L65.93 31.9018L66.7292 31.8646L66.7255 31.7847L65.9263 31.8219ZM65.93 31.9018L65.1309 31.9389C65.1283 31.8833 65.1472 31.7936 65.2199 31.7139C65.2925 31.6341 65.3801 31.607 65.4357 31.6044L65.4728 32.4036L65.51 33.2027C66.2311 33.1692 66.7627 32.5857 66.7292 31.8646L65.93 31.9018ZM59.5259 25.0718L59.588 25.8694C60.8667 25.7699 63.2858 25.5366 64.3929 25.3612L64.2678 24.5711L64.1426 23.7809C63.1032 23.9456 60.7386 24.175 59.4638 24.2743L59.5259 25.0718ZM64.2678 24.5711L65.0648 24.5026C64.7161 20.4419 64.3702 15.5803 64.1597 11.9137L63.361 11.9596L62.5624 12.0054C62.7737 15.6872 63.1207 20.5639 63.4707 24.6395L64.2678 24.5711ZM63.361 11.9596L62.592 11.7391C61.6971 14.861 60.1431 20.1765 58.7589 24.8444L59.5259 25.0718L60.2929 25.2993C61.678 20.6285 63.2334 15.3081 64.1301 12.18L63.361 11.9596ZM70.2367 31.4613L70.881 30.9871L70.6273 30.6423L70.1996 30.6621L70.2367 31.4613ZM69.7312 30.9242L68.936 30.8373L68.9292 30.8992L68.9321 30.9613L69.7312 30.9242ZM71.5743 7.6935L70.7799 7.59878L70.7774 7.6196L70.776 7.64053L71.5743 7.6935ZM71.9915 7.19358L72.1413 7.97943L72.1631 7.97528L72.1847 7.96992L71.9915 7.19358ZM70.8835 31.5914L70.9206 32.3905L71.1178 32.3813L71.2881 32.2815L70.8835 31.5914ZM70.7534 30.5163L69.9574 30.4363L69.7953 32.0502L71.1744 31.1965L70.7534 30.5163ZM72.5119 8.05034L72.3438 7.26818L71.7572 7.3942L71.7139 7.9926L72.5119 8.05034ZM70.6456 31.6425L70.6084 30.8433C70.6586 30.841 70.7011 30.8507 70.7374 30.8668C70.7722 30.8823 70.8287 30.9159 70.881 30.9871L70.2367 31.4613L69.5924 31.9355C69.8558 32.2934 70.2901 32.4599 70.6827 32.4416L70.6456 31.6425ZM70.2367 31.4613L70.1996 30.6621C70.2552 30.6596 70.3449 30.6784 70.4246 30.7511C70.5044 30.8238 70.5315 30.9113 70.5341 30.9669L69.7349 31.0041L68.9358 31.0412C68.9693 31.7623 69.5528 32.2939 70.2739 32.2604L70.2367 31.4613ZM69.7349 31.0041L70.5341 30.9669L70.5304 30.887L69.7312 30.9242L68.9321 30.9613L68.9358 31.0412L69.7349 31.0041ZM69.7312 30.9242L70.5265 31.011C71.1746 25.0744 72.0903 11.9997 72.3725 7.74648L71.5743 7.6935L70.776 7.64053C70.4932 11.9028 69.5797 24.9412 68.936 30.8373L69.7312 30.9242ZM71.5743 7.6935L72.3686 7.78823C72.373 7.75149 72.3763 7.79027 72.33 7.85214C72.3049 7.88566 72.271 7.91786 72.2302 7.94276C72.19 7.96728 72.1569 7.97646 72.1413 7.97943L71.9915 7.19358L71.8417 6.40773C71.5181 6.46943 71.2413 6.63648 71.049 6.89347C70.8707 7.13165 70.8043 7.39392 70.7799 7.59878L71.5743 7.6935ZM71.9915 7.19358L72.1847 7.96992C72.5331 7.88322 72.8785 7.83308 73.1818 7.81897L73.1447 7.01984L73.1075 6.2207C72.6916 6.24004 72.2416 6.30697 71.7983 6.41725L71.9915 7.19358ZM73.1447 7.01984L73.1818 7.81897C74.563 7.75475 75.7708 8.40036 76.6963 9.69283C77.6357 11.0047 78.2667 12.9728 78.3807 15.4257L79.1799 15.3886L79.979 15.3514C79.8553 12.6898 79.1668 10.3947 77.9972 8.76128C76.8136 7.10853 75.1226 6.12701 73.1075 6.2207L73.1447 7.01984ZM79.1799 15.3886L78.3807 15.4257C78.6768 21.7933 75.5365 27.9356 70.4788 30.9013L70.8835 31.5914L71.2881 32.2815C76.911 28.9844 80.2997 22.2495 79.979 15.3514L79.1799 15.3886ZM70.8835 31.5914L70.8463 30.7922C70.761 30.7962 70.6895 30.8101 70.64 30.8218C70.5931 30.8329 70.5504 30.846 70.5347 30.8507C70.5109 30.8578 70.5141 30.8566 70.5214 30.8548C70.5313 30.8525 70.5631 30.8455 70.6084 30.8433L70.6456 31.6425L70.6827 32.4416C70.768 32.4377 70.8395 32.4237 70.889 32.4121C70.936 32.401 70.9787 32.3879 70.9944 32.3832C71.0182 32.3761 71.015 32.3773 71.0076 32.379C70.9977 32.3813 70.9659 32.3884 70.9206 32.3905L70.8835 31.5914ZM70.7534 30.5163L71.1744 31.1965C76.2744 28.0398 79.3181 21.8067 79.02 15.396L78.2209 15.4332L77.4218 15.4703C77.6959 21.3663 74.8853 27.0179 70.3323 29.836L70.7534 30.5163ZM78.2209 15.4332L79.02 15.396C78.9079 12.9839 78.3247 10.93 77.3354 9.47027C76.3331 7.99138 74.8864 7.09903 73.1521 7.17966L73.1893 7.9788L73.2264 8.77794C74.2891 8.72853 75.2505 9.24586 76.0109 10.3679C76.7843 11.5091 77.3184 13.2474 77.4218 15.4703L78.2209 15.4332ZM73.1893 7.9788L73.1521 7.17966C72.96 7.1886 72.656 7.20111 72.3438 7.26818L72.5119 8.05034L72.6799 8.8325C72.8434 8.79736 73.0189 8.78758 73.2264 8.77794L73.1893 7.9788ZM72.5119 8.05034L71.7139 7.9926C71.3963 12.3812 70.5582 24.4564 69.9574 30.4363L70.7534 30.5163L71.5494 30.5962C72.1531 24.5873 72.9935 12.4783 73.3098 8.10809L72.5119 8.05034ZM82.3517 31.1382L82.4624 30.3459L82.4544 30.3448L82.4464 30.3439L82.3517 31.1382ZM81.8174 30.8427L82.4835 30.3997L82.4537 30.3549L82.4182 30.3145L81.8174 30.8427ZM81.6297 30.2508L82.424 30.3455L82.4258 30.3309L82.427 30.3162L81.6297 30.2508ZM84.2133 6.58528L85.006 6.69377L85.0077 6.68001L84.2133 6.58528ZM85.1797 6.70052L85.9721 6.8107L85.9823 6.73735L85.9788 6.66337L85.1797 6.70052ZM82.5886 30.2062L81.7916 30.1369L81.7223 30.9344L82.5199 31.0033L82.5886 30.2062ZM87.2162 29.8309L87.179 29.0318L87.0894 29.0359L87.0029 29.0599L87.2162 29.8309ZM87.4606 30.7806L87.2925 29.9984L87.2734 30.0025L87.2545 30.0076L87.4606 30.7806ZM84.4768 31.1996L84.4397 30.4005C83.7031 30.4347 83.0374 30.4263 82.4624 30.3459L82.3517 31.1382L82.2409 31.9305C82.9557 32.0305 83.7322 32.0351 84.514 31.9987L84.4768 31.1996ZM82.3517 31.1382L82.4464 30.3439C82.4136 30.34 82.3979 30.3362 82.3933 30.335C82.3897 30.334 82.3991 30.3362 82.4155 30.3449C82.4329 30.354 82.4504 30.3663 82.4653 30.3802C82.4796 30.3934 82.4851 30.4021 82.4835 30.3997L81.8174 30.8427L81.1512 31.2858C81.2817 31.4819 81.4514 31.6453 81.6692 31.7602C81.8757 31.8691 82.0837 31.912 82.2569 31.9326L82.3517 31.1382ZM81.8174 30.8427L82.4182 30.3145C82.399 30.2927 82.3942 30.2842 82.396 30.2872C82.3971 30.2889 82.3997 30.2934 82.4029 30.3004C82.4062 30.3075 82.4096 30.3162 82.4127 30.3259C82.4157 30.3357 82.418 30.3451 82.4195 30.3536C82.421 30.3619 82.4215 30.3681 82.4217 30.3714C82.422 30.3774 82.421 30.3709 82.424 30.3455L81.6297 30.2508L80.8353 30.1561C80.8123 30.3494 80.8125 30.5703 80.8859 30.8046C80.959 31.0376 81.0849 31.2212 81.2166 31.371L81.8174 30.8427ZM81.6297 30.2508L82.427 30.3162C82.7327 26.5896 84.0817 13.4473 85.0059 6.69376L84.2133 6.58528L83.4207 6.47681C82.4918 13.264 81.14 26.4355 80.8324 30.1854L81.6297 30.2508ZM84.2133 6.58528L85.0077 6.68001C84.9992 6.75079 84.9632 6.82527 84.9014 6.88119C84.8411 6.9357 84.771 6.95979 84.7114 6.96256L84.6742 6.16342L84.6371 5.36429C84.0262 5.39269 83.4963 5.8415 83.4189 6.49056L84.2133 6.58528ZM84.6742 6.16342L84.7114 6.96256C84.6558 6.96514 84.5661 6.94628 84.4863 6.8736C84.4065 6.80092 84.3794 6.71338 84.3769 6.65776L85.176 6.62061L85.9751 6.58345C85.9416 5.8624 85.3581 5.33076 84.6371 5.36429L84.6742 6.16342ZM85.176 6.62061L84.3769 6.65776L84.3806 6.73768L85.1797 6.70052L85.9788 6.66337L85.9751 6.58345L85.176 6.62061ZM85.1797 6.70052L84.3873 6.59035C83.4545 13.2995 82.1315 26.2297 81.7916 30.1369L82.5886 30.2062L83.3856 30.2756C83.7242 26.3828 85.0444 13.4824 85.9721 6.8107L85.1797 6.70052ZM82.5886 30.2062L82.5199 31.0033C83.159 31.0584 83.7956 31.0711 84.4694 31.0398L84.4322 30.2406L84.3951 29.4415C83.7902 29.4696 83.2244 29.4581 82.6574 29.4092L82.5886 30.2062ZM84.4322 30.2406L84.4694 31.0398C85.4692 30.9933 86.4867 30.8628 87.4295 30.6019L87.2162 29.8309L87.0029 29.0599C86.2062 29.2803 85.3132 29.3988 84.3951 29.4415L84.4322 30.2406ZM87.2162 29.8309L87.2534 30.63L87.3732 30.6245L87.3361 29.8253L87.2989 29.0262L87.179 29.0318L87.2162 29.8309ZM87.3361 29.8253L87.3732 30.6245C87.3176 30.627 87.2279 30.6082 87.1482 30.5355C87.0684 30.4628 87.0413 30.3753 87.0387 30.3197L87.8378 30.2825L88.637 30.2454C88.6035 29.5243 88.02 28.9927 87.2989 29.0262L87.3361 29.8253ZM87.8378 30.2825L87.0387 30.3197C87.0359 30.2601 87.0534 30.188 87.1021 30.1229C87.152 30.0562 87.2229 30.0134 87.2925 29.9984L87.4606 30.7806L87.6286 31.5627C88.2677 31.4254 88.6654 30.8562 88.637 30.2454L87.8378 30.2825ZM87.4606 30.7806L87.2545 30.0076C86.4172 30.2308 85.4426 30.3538 84.4397 30.4005L84.4768 31.1996L84.514 31.9987C85.5888 31.9488 86.6845 31.8154 87.6666 31.5536L87.4606 30.7806ZM93.5658 31.3376L92.7669 31.2973L92.7649 31.336L92.7667 31.3748L93.5658 31.3376ZM94.6235 21.3577L95.4128 21.4881L95.6838 19.8478L94.2328 20.6596L94.6235 21.3577ZM94.5454 21.4014L93.7581 21.5431L93.9568 22.6474L94.936 22.0995L94.5454 21.4014ZM93.3478 13.7287L94.1396 13.6148L94.1384 13.6067L93.3478 13.7287ZM92.2802 7.1312L91.481 7.16836L91.4834 7.21901L91.4921 7.26896L92.2802 7.1312ZM93.2336 6.96675L94.0216 6.82899L94.019 6.8138L94.0157 6.79872L93.2336 6.96675ZM94.2631 13.6061L93.4702 13.7129L93.4716 13.7231L93.4732 13.7332L94.2631 13.6061ZM95.1151 19.0124L94.3271 19.1504L95.8891 19.2147L95.1151 19.0124ZM100.429 5.83135L101.155 6.1673L101.16 6.15549L100.429 5.83135ZM101.328 6.23L102.053 6.56839L102.136 6.38976L102.127 6.19284L101.328 6.23ZM95.8807 19.9778L96.6635 20.1432L96.6638 20.1416L95.8807 19.9778ZM94.5285 31.3729L95.3229 31.4677L95.3263 31.4393L95.3276 31.4108L94.5285 31.3729ZM94.0695 31.8348L94.0323 31.0356C94.0879 31.033 94.1776 31.0519 94.2574 31.1246C94.3371 31.1973 94.3643 31.2848 94.3668 31.3404L93.5677 31.3776L92.7686 31.4147C92.8021 32.1358 93.3856 32.6674 94.1066 32.6339L94.0695 31.8348ZM93.5677 31.3776L94.3668 31.3404L94.365 31.3005L93.5658 31.3376L92.7667 31.3748L92.7686 31.4147L93.5677 31.3776ZM93.5658 31.3376L94.3648 31.378C94.5094 28.5151 94.9182 24.4819 95.4128 21.4881L94.6235 21.3577L93.8342 21.2273C93.3288 24.2865 92.9142 28.3803 92.7669 31.2973L93.5658 31.3376ZM94.6235 21.3577L94.2328 20.6596L94.1548 20.7032L94.5454 21.4014L94.936 22.0995L95.0141 22.0559L94.6235 21.3577ZM94.5454 21.4014L95.3328 21.2597C94.8497 18.5756 94.4949 16.0836 94.1396 13.6148L93.3478 13.7287L92.5559 13.8427C92.9105 16.3063 93.2692 18.8265 93.7581 21.5431L94.5454 21.4014ZM93.3478 13.7287L94.1384 13.6067C93.7946 11.3801 93.4516 9.18666 93.0682 6.99345L92.2802 7.1312L91.4921 7.26896C91.8725 9.44499 92.2134 11.6245 92.5571 13.8508L93.3478 13.7287ZM92.2802 7.1312L93.0793 7.09405L93.0756 7.01413L92.2765 7.05129L91.4773 7.08845L91.481 7.16836L92.2802 7.1312ZM92.2765 7.05129L93.0756 7.01413C93.0782 7.06975 93.0593 7.15943 92.9866 7.2392C92.914 7.31896 92.8264 7.34607 92.7708 7.34865L92.7337 6.54952L92.6965 5.75038C91.9755 5.7839 91.4438 6.3674 91.4773 7.08845L92.2765 7.05129ZM92.7337 6.54952L92.7708 7.34865C92.6614 7.35374 92.5791 7.31107 92.5337 7.27214C92.4906 7.23522 92.463 7.18848 92.4514 7.13477L93.2336 6.96675L94.0157 6.79872C93.8983 6.25211 93.3976 5.71778 92.6965 5.75038L92.7337 6.54952ZM93.2336 6.96675L92.4455 7.1045C92.8257 9.27954 93.166 11.4557 93.4702 13.7129L94.2631 13.6061L95.0559 13.4993C94.7487 11.22 94.4052 9.02319 94.0216 6.82899L93.2336 6.96675ZM94.2631 13.6061L93.4732 13.7332C93.7498 15.4512 93.9997 17.2819 94.3271 19.1504L95.1151 19.0124L95.9031 18.8743C95.5763 17.0092 95.3394 15.2587 95.0529 13.4789L94.2631 13.6061ZM95.1151 19.0124L95.8891 19.2147C96.6838 16.1743 98.8202 11.2132 101.155 6.16725L100.429 5.83135L99.7025 5.49544C97.3795 10.5167 95.1781 15.6079 94.3411 18.81L95.1151 19.0124ZM100.429 5.83135L101.16 6.15549C101.128 6.22843 101.037 6.32362 100.892 6.33035L100.855 5.53121L100.818 4.73208C100.274 4.75739 99.8745 5.10718 99.6972 5.5072L100.429 5.83135ZM100.855 5.53121L100.892 6.33035C100.837 6.33294 100.747 6.31407 100.667 6.2414C100.587 6.16872 100.56 6.08118 100.558 6.02556L101.357 5.9884L102.156 5.95125C102.123 5.23019 101.539 4.69855 100.818 4.73208L100.855 5.53121ZM101.357 5.9884L100.558 6.02556C100.556 5.98024 100.56 5.94794 100.561 5.93787C100.562 5.93038 100.563 5.92708 100.558 5.95142C100.555 5.9675 100.546 6.01122 100.539 6.05902C100.532 6.10939 100.525 6.18188 100.529 6.26716L101.328 6.23L102.127 6.19284C102.129 6.23816 102.125 6.27047 102.124 6.28053C102.123 6.28802 102.122 6.29133 102.127 6.26698C102.13 6.2509 102.139 6.20718 102.146 6.15938C102.153 6.10901 102.16 6.03652 102.156 5.95125L101.357 5.9884ZM101.328 6.23L100.603 5.89161C97.5133 12.5108 95.6437 17.2023 95.0977 19.8141L95.8807 19.9778L96.6638 20.1416C97.166 17.7393 98.9522 13.211 102.053 6.56839L101.328 6.23ZM95.8807 19.9778L95.098 19.8125C94.4632 22.8178 93.8926 27.8941 93.7294 31.3351L94.5285 31.3729L95.3276 31.4108C95.488 28.0294 96.0511 23.0422 96.6635 20.1432L95.8807 19.9778ZM94.5285 31.3729L93.7342 31.2782C93.7407 31.2237 93.7639 31.1746 93.8033 31.1338C93.845 31.0908 93.9229 31.0407 94.0323 31.0356L94.0695 31.8348L94.1066 32.6339C94.8077 32.6013 95.2567 32.0228 95.3229 31.4677L94.5285 31.3729ZM102.317 32.4924L103.048 32.8166L103.057 32.7961L103.065 32.7752L102.317 32.4924ZM104.152 3.05543L103.353 3.09258L103.357 3.19096L103.386 3.28529L104.152 3.05543ZM105.1 2.7711L104.323 2.96426L104.327 2.97942L104.331 2.99443L105.1 2.7711ZM103.215 32.8511L103.946 33.1753L103.956 33.1535L103.964 33.1312L103.215 32.8511ZM102.788 33.1512L102.751 32.3521C102.807 32.3495 102.896 32.3684 102.976 32.4411C103.056 32.5137 103.083 32.6013 103.086 32.6569L102.286 32.6941L101.487 32.7312C101.521 33.4523 102.104 33.9839 102.825 33.9504L102.788 33.1512ZM102.286 32.6941L103.086 32.6569C103.084 32.633 103.084 32.6318 103.084 32.6339C103.085 32.6397 103.084 32.6602 103.081 32.6887C103.078 32.7187 103.071 32.7475 103.064 32.7735C103.057 32.7976 103.05 32.813 103.048 32.8166L102.317 32.4924L101.586 32.1683C101.544 32.2623 101.508 32.3709 101.492 32.4992C101.479 32.6075 101.486 32.707 101.487 32.7312L102.286 32.6941ZM102.317 32.4924L103.065 32.7752C105.701 25.8006 106.862 19.1517 106.561 12.6739L105.762 12.7111L104.963 12.7482C105.252 18.9767 104.139 25.4076 101.569 32.2096L102.317 32.4924ZM105.762 12.7111L106.561 12.6739C106.406 9.33841 105.886 6.05337 104.918 2.82556L104.152 3.05543L103.386 3.28529C104.313 6.37626 104.813 9.53079 104.963 12.7482L105.762 12.7111ZM104.152 3.05543L104.951 3.01827L104.945 2.8984L104.146 2.93555L103.347 2.97271L103.353 3.09258L104.152 3.05543ZM104.146 2.93555L104.945 2.8984C104.948 2.95402 104.929 3.0437 104.856 3.12346C104.784 3.20323 104.696 3.23033 104.641 3.23292L104.603 2.43378L104.566 1.63464C103.845 1.66817 103.314 2.25166 103.347 2.97271L104.146 2.93555ZM104.603 2.43378L104.641 3.23292C104.582 3.23563 104.521 3.21901 104.467 3.18141C104.415 3.14518 104.351 3.07557 104.323 2.96426L105.1 2.7711L105.876 2.57794C105.724 1.96558 105.139 1.608 104.566 1.63464L104.603 2.43378ZM105.1 2.7711L104.331 2.99443C105.266 6.20909 105.769 9.40603 105.922 12.7036L106.721 12.6665L107.52 12.6293C107.361 9.21416 106.84 5.89163 105.868 2.54777L105.1 2.7711ZM106.721 12.6665L105.922 12.7036C106.217 19.051 105.07 25.6043 102.465 32.571L103.215 32.8511L103.964 33.1312C106.631 25.9978 107.827 19.228 107.52 12.6293L106.721 12.6665ZM103.215 32.8511L102.483 32.527C102.516 32.454 102.606 32.3588 102.751 32.3521L102.788 33.1512L102.825 33.9504C103.37 33.9251 103.769 33.5753 103.946 33.1753L103.215 32.8511Z" fill="#FFCC00" mask="url(#path-1-outside-1_13014_1539)"/>
<path d="M1.99996 42.6612C2.63737 42.4622 4.23409 41.5385 7.11233 40.003C16.2184 35.1449 18.8204 33.318 20.7224 32.1629C22.6974 30.9634 25.0442 30.3126 25.4625 29.9275C27.2467 28.2851 19.0099 28.3632 17.3834 27.8414C15.9207 27.3722 23.4794 28.4171 26.3108 28.9976C26.4488 30.0062 26.245 31.1331 25.9184 32.4932C25.74 33.4114 25.5361 34.7925 25.2222 36.2948" stroke="#FFCC00" stroke-width="2" stroke-linecap="round"/>
</svg>
